<?xml version="1.0" encoding="UTF-8"?> <svg xmlns="http://www.w3.org/2000/svg" width="142" height="220" viewBox="0 0 142 220" fill="none"> <path d="M58.5016 140.208C56.1268 142.266 53.0326 143.509 49.6711 143.509C46.2972 143.509 43.2159 142.266 40.8406 140.208C38.4408 138.125 36.7723 135.213 36.3095 131.925C36.1634 130.975 36.4677 130.061 37.0404 129.379L46.9675 116.492C47.5403 115.603 48.5389 115.018 49.6715 115.018H67.7472V110.828C67.7472 109.05 69.1845 107.6 70.9626 107.6C72.7531 107.6 74.1904 109.05 74.1904 110.828V115.018H92.2661C93.3988 115.018 94.3853 115.603 94.9702 116.48L104.995 129.5C105.519 130.195 105.75 131.06 105.628 131.924C105.165 135.213 103.497 138.124 101.097 140.207C98.7218 142.266 95.64 143.508 92.2665 143.508C88.8926 143.508 85.8109 142.266 83.436 140.207C81.0366 138.124 79.3798 135.213 78.905 131.924C78.7709 130.974 79.0635 130.061 79.6359 129.379L85.7383 121.474H74.1913V148.185H82.9002C85.4581 148.185 87.7724 149.22 89.4654 150.914C91.1464 152.595 92.1815 154.909 92.1815 157.467C92.1815 160.025 91.1464 162.351 89.4654 164.032C87.7724 165.713 85.4581 166.76 82.9002 166.76H59.0392C56.4812 166.76 54.1549 165.713 52.474 164.032C50.793 162.351 49.7454 160.025 49.7454 157.467C49.7454 154.909 50.793 152.595 52.474 150.914C54.1549 149.221 56.4812 148.185 59.0392 148.185H67.7481V121.474H56.2011L62.3886 129.501C62.9489 130.22 63.156 131.097 63.034 131.925C62.5699 135.14 60.962 138.076 58.5016 140.208ZM104.056 22.5823L108.489 27.0158C109.123 27.6492 109.439 28.4656 109.439 29.2936V42.1438H131.303C134.226 42.1438 136.882 43.3375 138.818 45.2741C140.743 47.1987 141.936 49.8542 141.936 52.7773C141.936 55.713 140.743 58.3684 138.818 60.2926C136.882 62.2172 134.226 63.4108 131.303 63.4108H128.173V79.6715C128.173 81.45 126.735 82.8873 124.945 82.8873H117.588V90.0979C117.588 91.876 116.151 93.3133 114.36 93.3133C112.582 93.3133 111.145 91.8755 111.145 90.0979V82.8873H30.7915V169.671C30.7915 171.45 29.3542 172.9 27.5636 172.9C25.7852 172.9 24.3479 171.45 24.3479 169.671V82.8873H16.9791C15.2007 82.8873 13.7638 81.45 13.7638 79.6715V63.4108H10.6335C7.71033 63.4108 5.04239 62.2172 3.11825 60.2926C1.19368 58.368 0 55.713 0 52.7773C0 49.8542 1.19368 47.1991 3.11825 45.2741C5.04282 43.3375 7.71033 42.1438 10.6335 42.1438H32.4969V29.294C32.4969 28.4656 32.8136 27.6496 33.4349 27.0162L37.8809 22.5827C37.0649 21.0358 36.6627 19.3184 36.6627 17.6134C36.6627 14.8728 37.7103 12.1202 39.805 10.0255L46.6869 3.14317C48.7817 1.04758 51.5347 0 54.2873 0C57.0278 0 59.7804 1.04758 61.8756 3.14231C63.9707 5.22544 65.0063 7.97802 65.0063 10.731C65.0063 13.4836 63.9707 16.2362 61.8756 18.3193L54.9937 25.2133C52.8989 27.296 50.1459 28.344 47.3933 28.344C45.6883 28.344 43.9829 27.9418 42.436 27.1378L38.9401 30.6217V42.1438H63.6661C65.4445 42.1438 66.8939 43.5932 66.8939 45.3717C66.8939 47.1501 65.4445 48.5874 63.6661 48.5874H10.6335C9.48838 48.5874 8.4408 49.0622 7.6738 49.8301C6.91841 50.5855 6.44318 51.6326 6.44318 52.7773C6.44318 53.9225 6.91841 54.97 7.6738 55.7375C8.44123 56.4928 9.48881 56.9676 10.6335 56.9676H131.303C132.448 56.9676 133.496 56.4928 134.251 55.7375C135.018 54.97 135.494 53.9225 135.494 52.7773C135.494 51.6326 135.019 50.5851 134.251 49.8301C133.496 49.0627 132.448 48.5874 131.303 48.5874H78.2703C76.4918 48.5874 75.0425 47.1501 75.0425 45.3717C75.0425 43.5932 76.4918 42.1438 78.2703 42.1438H102.996V30.6217L99.5004 27.1378C97.9535 27.9422 96.248 28.344 94.543 28.344C91.7905 28.344 89.0374 27.296 86.9427 25.2133L80.0608 18.3193C77.9657 16.2362 76.9181 13.4836 76.9181 10.731C76.9181 7.97802 77.9657 5.22544 80.0608 3.14231C82.156 1.04758 84.9086 0 87.6491 0C90.4017 0 93.1547 1.04758 95.2499 3.14231L102.132 10.0246C104.227 12.1194 105.262 14.8719 105.262 17.6125C105.262 19.3179 104.86 21.0358 104.056 22.5823ZM97.5758 14.5802L90.6939 7.69787C89.8534 6.85783 88.7573 6.44361 87.6487 6.44361C86.5526 6.44361 85.4444 6.85783 84.6159 7.69787C83.7875 8.52631 83.3733 9.62287 83.3733 10.731C83.3733 11.8272 83.7875 12.9358 84.6159 13.7642L91.4978 20.6461C92.3383 21.4866 93.4344 21.9008 94.543 21.9008C95.6392 21.9008 96.7473 21.4866 97.5758 20.6461C98.4042 19.8177 98.818 18.7215 98.818 17.6129C98.818 16.5168 98.4046 15.4082 97.5758 14.5802ZM51.2421 7.69787L44.3602 14.5802C43.5317 15.4082 43.1175 16.5168 43.1175 17.6129C43.1175 18.7215 43.5313 19.8177 44.3602 20.6461C45.1641 21.4621 46.2603 21.9008 47.3929 21.9008C48.5015 21.9008 49.5976 21.4866 50.4261 20.6461L57.32 13.7642C58.1484 12.9358 58.5622 11.8272 58.5622 10.731C58.5622 9.62287 58.1484 8.52631 57.32 7.69787C56.4795 6.85783 55.3834 6.44361 54.2873 6.44361C53.1791 6.44361 52.0825 6.85783 51.2421 7.69787ZM20.207 76.4437H121.73V63.4104H20.207V76.4437ZM24.3479 184.276C24.3479 182.497 25.7852 181.047 27.5636 181.047C29.3542 181.047 30.7915 182.497 30.7915 184.276V191.474H111.145V104.69C111.145 102.911 112.582 101.474 114.36 101.474C116.151 101.474 117.588 102.912 117.588 104.69V191.864C120.097 192.461 122.35 193.764 124.117 195.53C126.626 198.027 128.173 201.486 128.173 205.287V216.785C128.173 218.563 126.735 220 124.945 220H16.9791C15.2007 220 13.7638 218.563 13.7638 216.785V205.287C13.7638 201.486 15.3107 198.027 17.8196 195.53C19.5856 193.764 21.8389 192.461 24.3483 191.864V184.276H24.3479ZM121.729 213.557V205.287C121.729 203.264 120.901 201.425 119.561 200.086C118.221 198.758 116.382 197.918 114.36 197.918H27.5636C25.554 197.918 23.7025 198.758 22.3747 200.086C21.035 201.425 20.2065 203.264 20.2065 205.287V213.557H121.729ZM82.8989 154.629H59.0379C58.2584 154.629 57.5516 154.945 57.0282 155.469C56.5165 155.98 56.1998 156.687 56.1998 157.467C56.1998 158.246 56.5165 158.965 57.0282 159.477C57.552 159.988 58.2584 160.317 59.0379 160.317H82.8989C83.6788 160.317 84.3848 159.988 84.8965 159.477C85.4203 158.965 85.737 158.246 85.737 157.467C85.737 156.688 85.4203 155.98 84.8965 155.469C84.3848 154.946 83.6784 154.629 82.8989 154.629ZM96.8939 135.348C97.8439 134.519 98.5748 133.447 98.977 132.229L92.2657 123.508L85.5544 132.229C85.9566 133.447 86.687 134.519 87.6371 135.348C88.8797 136.419 90.4872 137.065 92.2657 137.065C94.0437 137.065 95.6637 136.419 96.8939 135.348ZM54.2997 135.348C55.2498 134.519 55.9682 133.447 56.3824 132.229L49.6711 123.508L42.9598 132.229C43.362 133.447 44.0929 134.519 45.0429 135.348C46.2731 136.419 47.8931 137.065 49.6711 137.065C51.4492 137.065 53.0571 136.419 54.2997 135.348Z" fill="#DFA963"></path> </svg> 